<?xml version="1.0" encoding="UTF-8"?>
<!DOCTYPE svg PUBLIC "-//W3C//DTD SVG 1.1//EN" "http://www.w3.org/Graphics/SVG/1.1/DTD/svg11.dtd">
<!-- Creator: CorelDRAW X7 -->
<svg xmlns="http://www.w3.org/2000/svg" xml:space="preserve" width="11.0167mm" height="12.3591mm" version="1.1" style="shape-rendering:geometricPrecision; text-rendering:geometricPrecision; image-rendering:optimizeQuality; fill-rule:evenodd; clip-rule:evenodd"
viewBox="0 0 67 75"
 xmlns:xlink="http://www.w3.org/1999/xlink">
 <defs>
  <style type="text/css">
   <![CDATA[
    .str0 {stroke:#EF8762;stroke-width:0.460721}
    .fil0 {fill:#EF8762}
   ]]>
  </style>
 </defs>
 <g id="图层_x0020_1">
  <metadata id="CorelCorpID_0Corel-Layer"/>
  <path class="fil0 str0" d="M34 65l0 1 1 0c3,-1 8,-8 10,-11 3,-6 -6,-21 -10,-28 -4,-10 -1,-11 -2,-17 -2,1 -8,7 -9,10 -2,6 7,21 10,29 3,8 2,8 0,16z"/>
  <path class="fil0 str0" d="M16 60c3,0 7,-5 8,-8 3,-3 0,-8 -1,-12 -7,-14 -8,-11 -7,-24 -3,0 -7,5 -8,8 -1,5 6,18 8,23 3,7 1,7 0,13z"/>
  <path class="fil0 str0" d="M52 60c3,-1 6,-5 8,-8 2,-3 2,-3 1,-6 -3,-7 -4,-9 -8,-16 -3,-7 -1,-7 -1,-14 -3,1 -7,5 -8,8 -1,4 2,10 3,13 2,3 4,7 5,10 3,7 1,7 0,13z"/>
  <path class="fil0 str0" d="M33 0l17 10 16 9 0 18 0 19 -16 9 -17 9 -16 -9 -17 -9 0 -19 0 -18 17 -9 16 -10zm0 2l16 9 16 9 0 17 0 18 -16 9 -16 9 -15 -9 -16 -9 0 -18 0 -17 16 -9 15 -9z"/>
 </g>
</svg>
