<?xml version="1.0" encoding="UTF-8"?>
<!DOCTYPE svg PUBLIC "-//W3C//DTD SVG 1.1//EN" "http://www.w3.org/Graphics/SVG/1.1/DTD/svg11.dtd">
<!-- Creator: CorelDRAW X7 -->
<svg xmlns="http://www.w3.org/2000/svg" xml:space="preserve" width="10.9404mm" height="12.272mm" version="1.1" style="shape-rendering:geometricPrecision; text-rendering:geometricPrecision; image-rendering:optimizeQuality; fill-rule:evenodd; clip-rule:evenodd"
viewBox="0 0 66 74"
 xmlns:xlink="http://www.w3.org/1999/xlink">
 <defs>
  <style type="text/css">
   <![CDATA[
    .fil0 {fill:#E62129}
   ]]>
  </style>
 </defs>
 <g id="图层_x0020_1">
  <metadata id="CorelCorpID_0Corel-Layer"/>
  <path class="fil0" d="M34 64l0 2 1 -1c2,-1 8,-7 9,-10 3,-6 -6,-21 -9,-29 -4,-10 -1,-10 -2,-17 -3,1 -8,7 -9,10 -3,7 6,22 9,29 4,8 3,8 1,16z"/>
  <path class="fil0" d="M16 59c3,0 6,-5 8,-7 2,-4 0,-9 -2,-12 -6,-14 -7,-11 -6,-24 -3,0 -7,5 -8,8 -2,4 6,17 8,22 3,7 1,8 0,13z"/>
  <path class="fil0" d="M52 60c3,-1 6,-6 8,-9 1,-2 1,-3 0,-5 -3,-8 -4,-10 -7,-17 -3,-6 -2,-6 -2,-13 -2,0 -7,5 -7,8 -1,4 1,10 3,12 1,4 3,7 5,11 3,6 0,7 0,13z"/>
  <path class="fil0" d="M33 0l16 9 17 9 0 19 0 18 -17 10 -16 9 -17 -9 -16 -10 0 -18 0 -19 16 -9 17 -9zm0 2l16 9 15 8 0 18 0 17 -15 9 -16 9 -16 -9 -15 -9 0 -17 0 -18 15 -8 16 -9z"/>
 </g>
</svg>
